<?xml version="1.0" standalone="no"?><!DOCTYPE svg PUBLIC "-//W3C//DTD SVG 1.1//EN" "http://www.w3.org/Graphics/SVG/1.1/DTD/svg11.dtd"><svg t="1739620244077" class="icon" viewBox="0 0 1024 1024" version="1.1" xmlns="http://www.w3.org/2000/svg" p-id="8417" xmlns:xlink="http://www.w3.org/1999/xlink" width="200" height="200"><path d="M796.8 470.4c-64 0-118.4-54.4-118.4-118.4s54.4-118.4 118.4-118.4S915.2 288 915.2 352s-54.4 118.4-118.4 118.4z m0-195.2c-41.6 0-73.6 35.2-73.6 73.6s35.2 73.6 73.6 73.6c41.6 0 73.6-35.2 73.6-73.6s-32-73.6-73.6-73.6zM588.8 604.8c-70.4 0-121.6-28.8-153.6-83.2-25.6-44.8-35.2-115.2 67.2-192l32-22.4 3.2 38.4c3.2 44.8 12.8 76.8 22.4 99.2 12.8 25.6 38.4 67.2 83.2 121.6l22.4 28.8-38.4 3.2c-12.8 6.4-25.6 6.4-38.4 6.4z m-86.4-214.4c-51.2 51.2-38.4 86.4-25.6 112 22.4 38.4 57.6 57.6 108.8 60.8-32-41.6-51.2-73.6-64-99.2-9.6-19.2-16-44.8-19.2-73.6zM668.8 924.8c-25.6 0-54.4-16-57.6-60.8-3.2-73.6 38.4-182.4 128-339.2l28.8-51.2 12.8 57.6c19.2 102.4 32 182.4 32 243.2-3.2 70.4-86.4 147.2-144 150.4z m80-329.6c-64 121.6-96 208-92.8 265.6 0 22.4 9.6 22.4 12.8 22.4 35.2 0 96-60.8 96-108.8s-6.4-105.6-16-179.2zM243.2 326.4c-57.6 0-105.6-25.6-128-67.2-16-32-12.8-64 6.4-89.6 22.4-28.8 64-38.4 115.2-25.6 96 22.4 233.6 41.6 409.6 54.4l6.4 41.6c-172.8 57.6-310.4 86.4-409.6 86.4zM198.4 182.4c-19.2 0-32 6.4-41.6 16-9.6 9.6-9.6 25.6-3.2 41.6 12.8 28.8 44.8 44.8 86.4 44.8 76.8 0 172.8-19.2 294.4-54.4-128-12.8-230.4-25.6-307.2-44.8-9.6-3.2-19.2-3.2-28.8-3.2z" fill="#2c2c2c" p-id="8418"></path><path d="M470.4 720c-112 0-185.6-35.2-217.6-108.8-25.6-57.6-32-144 83.2-227.2l35.2-25.6v41.6c0 67.2 6.4 118.4 25.6 150.4 22.4 41.6 70.4 83.2 140.8 124.8l57.6 35.2-67.2 6.4c-19.2 0-38.4 3.2-57.6 3.2z m-140.8-275.2c-48 44.8-60.8 96-35.2 147.2 22.4 51.2 80 80 166.4 83.2-44.8-32-80-67.2-99.2-102.4-19.2-32-28.8-73.6-32-128z" fill="#2c2c2c" p-id="8419"></path></svg>